<?xml version="1.0" encoding="utf-8"?>
<!-- Generator: Adobe Illustrator 18.0.0, SVG Export Plug-In . SVG Version: 6.00 Build 0)  -->
<!DOCTYPE svg PUBLIC "-//W3C//DTD SVG 1.1//EN" "http://www.w3.org/Graphics/SVG/1.1/DTD/svg11.dtd">
<svg version="1.1" id="Layer_1" xmlns="http://www.w3.org/2000/svg" xmlns:xlink="http://www.w3.org/1999/xlink" x="0px" y="0px"
	 viewBox="0 0 600 600" enable-background="new 0 0 600 600" xml:space="preserve">
<g>
	<path fill="#333333" d="M273.2,268.9c-42.7-10.6-19.3-47.8,15.3-47.3c33.5,0.5,50.6,36.7,65.8,34.8c15.2-1.9,28.2-25.2,4.3-46
		c-20.7-18-46.9-28-87.2-24.3c-31.6,2.9-61.6,23.6-65.2,64c-3.7,40.4,43.3,61,80.5,66.6c26.1,3.9,61.6,16.8,40.3,41.6
		c-19.6,22.9-56.7,8.7-66.5,2.5c-9.8-6.2-20.8-28.6-39.1-27.4c-18.3,1.2-27.3,25.7-4.9,47.3c20.1,19.3,42.1,29.8,89,27.4
		c47-2.5,89-44.8,72.6-84.6C361.7,283.8,315.9,279.5,273.2,268.9z"/>
	<path fill="#333333" d="M292.5,8.5c-156.9,0-284,127.1-284,284c0,156.8,127.1,284,284,284s284-127.2,284-284
		C576.5,135.6,449.4,8.5,292.5,8.5z M365.2,453.2c-17.1,0-33-5-46.6-13.5c-8.7,1.6-17.7,2.5-26.9,2.5
		c-81.5,0-147.5-66.7-147.5-148.9c0-8,0.6-15.8,1.8-23.5c-9-14-14.2-30.7-14.2-48.6c0-49.3,39.4-89.3,88-89.3
		c17.7,0,34.2,5.3,48.1,14.5c7.7-1.3,15.7-2,23.8-2c81.5,0,147.5,66.7,147.5,148.9c0,6.8-0.5,13.6-1.4,20.2
		c9.7,14.3,15.3,31.7,15.3,50.3C453.2,413.2,413.8,453.2,365.2,453.2z"/>
</g>
</svg>
